<svg viewBox="0 0 148 113" xmlns="http://www.w3.org/2000/svg" xmlns:xlink="http://www.w3.org/1999/xlink" width="148.000000" height="113.000000" fill="none" customFrame="#000000">
	<g id="Сочетание 8">
		<path id="Star 5" d="M23.4967 13.5033L37 18.5L23.4967 23.4967L18.5 37L13.5033 23.4967L3.55271e-15 18.5L13.5033 13.5033L18.5 0L23.4967 13.5033Z" fill="rgb(188,236,48)" fill-rule="evenodd" />
		<path id="Star 5" d="M23.4967 13.5033L19.0331 1.44077L18.5 0L17.9669 1.44077L13.5033 13.5033L1.44077 17.9669L3.55271e-15 18.5L1.44077 19.0331L13.5033 23.4967L17.9669 35.5592L18.5 37L19.0331 35.5592L23.4967 23.4967L35.5592 19.0331L37 18.5L35.5592 17.9669L23.4967 13.5033ZM34.1185 18.5L23.1496 14.4412L22.7184 14.2816L18.5 2.88154L14.2816 14.2816L2.88154 18.5L14.2816 22.7184L18.5 34.1185L22.7184 22.7184L34.1185 18.5Z" fill="rgb(32,32,39)" fill-rule="evenodd" />
		<path id="Star 4" d="M117.709 60.2912L107.033 31.4408L106.5 30L105.967 31.4408L95.2912 60.2912L66.4408 70.9669L65 71.5L66.4408 72.0331L95.2912 82.7088L105.967 111.559L106.5 113L107.033 111.559L117.709 82.7088L146.559 72.0331L148 71.5L146.559 70.9669L117.709 60.2912ZM145.118 71.5L117.362 61.2291L116.93 61.0695L106.5 32.8815L96.0695 61.0695L67.8815 71.5L96.0695 81.9305L106.5 110.118L116.93 81.9305L145.118 71.5Z" fill="rgb(32,32,39)" fill-rule="evenodd" />
	</g>
</svg>
